<svg version="1.1" id="Layer_1" xmlns="http://www.w3.org/2000/svg" xmlns:xlink="http://www.w3.org/1999/xlink" x="0px" y="0px"
	 width="100%" viewBox="0 0 500 500" enable-background="new 0 0 500 500" xml:space="preserve">
<path fill="#38B6FF" opacity="1.000000" stroke="none" 
	d="
M331.000000,501.000000 
	C220.666687,501.000000 110.833389,501.000000 1.000059,501.000000 
	C1.000039,334.333405 1.000039,167.666794 1.000020,1.000148 
	C167.666565,1.000099 334.333130,1.000099 500.999756,1.000049 
	C500.999847,167.666519 500.999847,334.333038 500.999939,500.999786 
	C444.500000,501.000000 388.000000,501.000000 331.000000,501.000000 
M124.500252,149.641418 
	C110.754295,149.641418 97.008339,149.641418 83.311371,149.641418 
	C83.311371,230.486389 83.311371,310.559021 83.311371,390.632935 
	C206.007645,390.632935 328.375183,390.632935 450.700562,390.632935 
	C450.700562,310.180786 450.700562,230.113022 450.700562,149.642456 
	C342.089905,149.642456 233.795105,149.642456 124.500252,149.641418 
z"/>
<path fill="#F8FCFF" opacity="1.000000" stroke="none" 
	d="
M125.000275,149.641937 
	C233.795105,149.642456 342.089905,149.642456 450.700562,149.642456 
	C450.700562,230.113022 450.700562,310.180786 450.700562,390.632935 
	C328.375183,390.632935 206.007645,390.632935 83.311371,390.632935 
	C83.311371,310.559021 83.311371,230.486389 83.311371,149.641418 
	C97.008339,149.641418 110.754295,149.641418 125.000275,149.641937 
M446.982452,360.500000 
	C446.982452,291.723389 446.982452,222.946777 446.982452,153.920883 
	C326.793274,153.920883 207.214539,153.920883 87.406784,153.920883 
	C87.406784,231.684296 87.406784,309.206451 87.406784,386.683105 
	C207.380493,386.683105 326.964691,386.683105 446.982452,386.683105 
	C446.982452,378.093445 446.982452,369.796722 446.982452,360.500000 
z"/>
<path fill="#38B6FE" opacity="1.000000" stroke="none" 
	d="
M446.982452,361.000000 
	C446.982452,369.796722 446.982452,378.093445 446.982452,386.683105 
	C326.964691,386.683105 207.380493,386.683105 87.406784,386.683105 
	C87.406784,309.206451 87.406784,231.684296 87.406784,153.920883 
	C207.214539,153.920883 326.793274,153.920883 446.982452,153.920883 
	C446.982452,222.946777 446.982452,291.723389 446.982452,361.000000 
M227.978668,334.759644 
	C229.730743,334.955841 231.482819,335.152039 233.112457,335.334534 
	C233.112457,332.061584 233.112457,329.090424 233.112457,326.119232 
	C232.634537,326.025421 232.156616,325.931580 231.678696,325.837738 
	C231.109253,327.200592 230.539810,328.563446 229.414307,330.272461 
	C228.159775,328.813477 226.905243,327.354492 224.737488,324.833466 
	C224.737488,329.127869 224.737488,332.132355 224.737488,335.380768 
	C225.858292,334.952271 226.898254,334.554688 227.978668,334.759644 
M207.720261,206.730408 
	C206.098618,197.046341 204.317673,187.385147 202.923553,177.668427 
	C202.242035,172.918304 200.431702,170.659637 195.214508,170.864685 
	C185.897461,171.230850 176.549240,171.172028 167.227005,170.879227 
	C162.746964,170.738510 161.019470,172.593826 160.306686,176.742722 
	C157.348755,193.959930 154.178085,211.140503 151.127899,228.342041 
	C149.875595,235.404480 150.879074,236.560394 158.134171,236.567551 
	C175.236496,236.584412 192.338852,236.572952 209.762650,236.572952 
	C209.762650,243.498032 209.780472,250.305450 209.757675,257.112701 
	C209.734497,264.029877 210.200378,264.720947 217.020050,264.517273 
	C224.091919,264.306030 231.152130,263.265411 238.214676,263.293030 
	C246.622955,263.325897 255.028152,264.112213 263.434967,264.566956 
	C267.421143,264.782562 269.169647,263.004028 269.080750,258.904846 
	C268.911804,251.115723 269.031830,243.320328 269.031830,236.236191 
	C278.489349,235.918228 287.661224,238.417542 296.721710,234.980530 
	C297.169159,234.810791 297.747437,234.852234 298.235779,234.946198 
	C300.919708,235.462616 303.580261,236.394241 306.275421,236.498764 
	C312.386566,236.735748 318.513184,236.573364 325.038666,236.573364 
	C324.821472,238.550888 324.765289,240.004578 324.489716,241.415405 
	C322.894958,249.580154 321.212463,257.727844 319.631012,265.895111 
	C318.387726,272.316284 319.430634,273.592865 326.134247,273.546234 
	C332.436646,273.502380 338.737976,273.077881 345.038849,273.099243 
	C355.186554,273.133606 365.333038,273.458252 375.480957,273.532471 
	C379.440796,273.561432 381.114868,271.741547 380.354340,267.474823 
	C377.141968,249.452850 374.056183,231.407059 371.119965,213.338150 
	C370.490906,209.466904 368.779999,207.872406 364.875153,207.924072 
	C354.878906,208.056320 344.878357,208.064575 334.882507,207.918335 
	C331.135590,207.863525 329.385986,209.444824 328.967316,213.055191 
	C328.608276,216.151917 327.997833,219.219482 327.450500,222.596344 
	C320.736938,209.526642 320.747345,196.907928 326.293579,184.247437 
	C326.426758,183.943375 326.532928,183.624313 326.619812,183.303619 
	C329.697266,171.945099 328.961853,170.787903 317.396393,171.039032 
	C311.043091,171.176987 304.703247,172.493439 298.361572,172.460449 
	C290.815430,172.421219 283.280823,171.334274 275.727997,171.023331 
	C270.027039,170.788651 269.021057,171.971527 269.001190,177.612442 
	C268.975067,185.029556 268.994812,192.446838 268.994812,198.967697 
	C263.259247,198.967697 257.971008,198.801849 252.698578,199.019562 
	C248.388428,199.197525 244.090836,200.245392 239.798874,200.179382 
	C231.071426,200.045105 222.351456,199.216980 213.628586,199.219833 
	C212.365509,199.220245 210.248215,202.119080 210.013214,203.875595 
	C209.470520,207.931839 209.840866,212.110229 209.840866,216.239075 
	C209.669312,216.261566 209.497757,216.284058 209.326202,216.306549 
	C208.836655,213.400131 208.347092,210.493729 207.720261,206.730408 
M210.911469,335.490173 
	C212.700745,334.463196 215.165009,333.827972 216.061737,332.282928 
	C216.755966,331.086792 215.962997,328.382080 214.926407,327.054413 
	C214.239136,326.174194 211.507584,325.860626 210.498367,326.523071 
	C209.251053,327.341827 208.306519,329.409912 208.232254,330.985413 
	C208.169601,332.314545 209.536652,333.711029 210.911469,335.490173 
M250.339249,318.011017 
	C254.930511,316.253174 251.022644,312.909119 251.753967,310.430878 
	C249.638885,309.868713 247.523788,309.306580 244.946075,308.621460 
	C244.946075,311.829620 244.850113,313.812805 244.967773,315.783203 
	C245.161133,319.021423 246.746765,319.848450 250.339249,318.011017 
M280.710876,312.219543 
	C280.357819,307.477264 277.186340,309.274811 274.385010,309.306763 
	C274.385010,312.435516 274.385010,315.264709 274.385010,319.042938 
	C275.824097,317.300568 276.684845,316.258423 277.698639,315.030975 
	C278.581604,316.619415 279.233307,317.791779 279.884979,318.964172 
	C280.189056,318.881622 280.493134,318.799103 280.797180,318.716583 
	C280.655884,316.784821 280.514557,314.853027 280.710876,312.219543 
M279.613953,329.830963 
	C280.258209,323.600525 275.956421,326.755554 272.793304,325.979614 
	C273.023315,329.604919 273.211670,332.573853 273.400055,335.542786 
	C273.816589,335.522003 274.233124,335.501190 274.649658,335.480408 
	C274.984772,334.313690 275.319885,333.146942 275.865509,331.247284 
	C277.299347,333.201324 278.275909,334.532227 279.252502,335.863129 
	C279.514343,335.775391 279.776154,335.687683 280.037994,335.599945 
	C279.770294,333.907806 279.502594,332.215668 279.613953,329.830963 
M259.329529,334.794495 
	C261.321564,335.124207 263.313568,335.453918 265.305603,335.783630 
	C265.409821,335.207794 265.514038,334.631989 265.618286,334.056152 
	C264.404541,333.537628 263.190796,333.019073 261.275146,332.200653 
	C262.882111,331.411896 263.785858,330.968292 264.981293,330.381531 
	C263.963043,329.695892 263.150299,329.148590 262.263672,328.551575 
	C263.489655,327.874146 264.429749,327.354675 266.327850,326.305847 
	C263.148132,326.305847 261.250671,326.305847 259.021393,326.305847 
	C259.021393,329.072205 259.021393,331.522369 259.329529,334.794495 
M262.543793,311.329956 
	C263.770721,310.937164 264.997681,310.544373 266.224609,310.151581 
	C266.156616,309.882324 266.088593,309.613098 266.020569,309.343872 
	C264.208038,309.343872 262.395508,309.343872 260.556183,309.343872 
	C260.556183,312.734100 260.556183,315.744354 260.556183,319.109039 
	C262.657715,318.965149 264.306091,318.852264 265.954468,318.739380 
	C266.035248,318.331757 266.116028,317.924164 266.196838,317.516571 
	C265.045624,316.854156 263.894440,316.191742 262.853912,315.592987 
	C263.831055,314.988373 264.747375,314.421387 265.796356,313.772339 
	C264.599518,313.063080 263.671204,312.512970 262.543793,311.329956 
M217.652878,319.038208 
	C218.484894,318.475006 219.316910,317.911835 220.485214,317.121002 
	C218.632889,316.417816 217.391815,315.946655 215.245453,315.131866 
	C217.272186,314.358582 218.330826,313.954651 220.024063,313.308624 
	C218.322510,312.596375 217.345657,312.187500 216.163528,311.692688 
	C217.569199,310.951233 218.660980,310.375336 219.752777,309.799438 
	C219.660004,309.533112 219.567215,309.266754 219.474442,309.000397 
	C217.758804,309.088013 216.043152,309.175659 214.011230,309.279449 
	C214.011230,311.928467 213.693314,314.140259 214.138809,316.185791 
	C214.379120,317.289276 215.925613,318.108276 217.652878,319.038208 
M202.472687,315.102631 
	C203.249603,316.135529 204.026535,317.168427 205.613647,319.278473 
	C205.613647,314.888611 205.613647,312.143890 205.613647,309.399170 
	C203.154755,314.755188 200.890259,312.042664 198.382706,308.511169 
	C198.382706,312.416718 198.382706,315.255554 198.382706,318.595001 
	C199.734039,317.171051 200.719421,316.132721 202.472687,315.102631 
M197.539764,335.080566 
	C198.336899,334.906372 199.252335,334.914612 199.893066,334.499146 
	C200.388977,334.177673 200.541138,333.325958 201.107452,332.182098 
	C196.430222,333.646423 194.727890,332.611969 196.391373,328.199371 
	C197.861420,328.199371 199.221756,328.199371 200.582108,328.199371 
	C200.663773,327.802795 200.745453,327.406250 200.827133,327.009674 
	C199.281845,326.714722 197.404831,325.744476 196.276672,326.298645 
	C194.918350,326.965881 193.234497,329.083649 193.429428,330.293427 
	C193.706604,332.013489 195.567322,333.478424 197.539764,335.080566 
M294.203766,326.823944 
	C291.423401,325.175964 288.712402,325.513702 287.826263,328.618927 
	C287.336121,330.336487 288.316406,333.106354 289.615112,334.461334 
	C290.378357,335.257660 293.065826,334.209656 294.887817,333.991241 
	C294.796051,333.494171 294.704285,332.997101 294.612518,332.500000 
	C293.257233,332.650330 291.901917,332.800629 290.176453,332.991974 
	C290.176453,331.236786 290.176453,329.747925 290.176453,328.595459 
	C292.005920,328.095428 293.335114,327.732178 294.203766,326.823944 
M187.595016,310.983673 
	C188.401596,311.061768 189.208176,311.139832 191.298431,311.342133 
	C188.072052,308.609680 185.595276,307.792633 183.852997,310.452209 
	C182.338959,312.763336 181.816589,315.786316 184.991608,317.739166 
	C187.694565,319.401703 189.068649,317.922089 190.513657,316.018219 
	C188.329315,315.669128 186.760529,315.418427 185.191742,315.167725 
	C185.750305,313.753784 186.308868,312.339844 187.595016,310.983673 
M307.161407,335.053589 
	C310.167938,331.791077 303.880280,334.204224 305.463684,331.604950 
	C306.143494,331.352173 307.111633,330.992218 308.636658,330.425201 
	C307.224060,329.699127 306.310791,329.229736 305.077515,328.595856 
	C306.515808,327.977325 307.550323,327.532410 308.584839,327.087524 
	C308.535248,326.841278 308.485657,326.595032 308.436066,326.348785 
	C306.782318,326.348785 305.128540,326.348785 303.201172,326.348785 
	C303.201172,329.461975 303.201172,332.460266 303.201172,335.440033 
	C304.448364,335.297546 305.424530,335.186035 307.161407,335.053589 
z"/>
<path fill="#0C0E0F" opacity="1.000000" stroke="none" 
	d="
M207.788910,207.158859 
	C208.347092,210.493729 208.836655,213.400131 209.326202,216.306549 
	C209.497757,216.284058 209.669312,216.261566 209.840866,216.239075 
	C209.840866,212.110229 209.470520,207.931839 210.013214,203.875595 
	C210.248215,202.119080 212.365509,199.220245 213.628586,199.219833 
	C222.351456,199.216980 231.071426,200.045105 239.798874,200.179382 
	C244.090836,200.245392 248.388428,199.197525 252.698578,199.019562 
	C257.971008,198.801849 263.259247,198.967697 268.994812,198.967697 
	C268.994812,192.446838 268.975067,185.029556 269.001190,177.612442 
	C269.021057,171.971527 270.027039,170.788651 275.727997,171.023331 
	C283.280823,171.334274 290.815430,172.421219 298.361572,172.460449 
	C304.703247,172.493439 311.043091,171.176987 317.396393,171.039032 
	C328.961853,170.787903 329.697266,171.945099 326.619812,183.303619 
	C326.532928,183.624313 326.426758,183.943375 326.293579,184.247437 
	C320.747345,196.907928 320.736938,209.526642 327.450500,222.596344 
	C327.997833,219.219482 328.608276,216.151917 328.967316,213.055191 
	C329.385986,209.444824 331.135590,207.863525 334.882507,207.918335 
	C344.878357,208.064575 354.878906,208.056320 364.875153,207.924072 
	C368.779999,207.872406 370.490906,209.466904 371.119965,213.338150 
	C374.056183,231.407059 377.141968,249.452850 380.354340,267.474823 
	C381.114868,271.741547 379.440796,273.561432 375.480957,273.532471 
	C365.333038,273.458252 355.186554,273.133606 345.038849,273.099243 
	C338.737976,273.077881 332.436646,273.502380 326.134247,273.546234 
	C319.430634,273.592865 318.387726,272.316284 319.631012,265.895111 
	C321.212463,257.727844 322.894958,249.580154 324.489716,241.415405 
	C324.765289,240.004578 324.821472,238.550888 325.038666,236.573364 
	C318.513184,236.573364 312.386566,236.735748 306.275421,236.498764 
	C303.580261,236.394241 300.919708,235.462616 298.235779,234.946198 
	C297.747437,234.852234 297.169159,234.810791 296.721710,234.980530 
	C287.661224,238.417542 278.489349,235.918228 269.031830,236.236191 
	C269.031830,243.320328 268.911804,251.115723 269.080750,258.904846 
	C269.169647,263.004028 267.421143,264.782562 263.434967,264.566956 
	C255.028152,264.112213 246.622955,263.325897 238.214676,263.293030 
	C231.152130,263.265411 224.091919,264.306030 217.020050,264.517273 
	C210.200378,264.720947 209.734497,264.029877 209.757675,257.112701 
	C209.780472,250.305450 209.762650,243.498032 209.762650,236.572952 
	C192.338852,236.572952 175.236496,236.584412 158.134171,236.567551 
	C150.879074,236.560394 149.875595,235.404480 151.127899,228.342041 
	C154.178085,211.140503 157.348755,193.959930 160.306686,176.742722 
	C161.019470,172.593826 162.746964,170.738510 167.227005,170.879227 
	C176.549240,171.172028 185.897461,171.230850 195.214508,170.864685 
	C200.431702,170.659637 202.242035,172.918304 202.923553,177.668427 
	C204.317673,187.385147 206.098618,197.046341 207.788910,207.158859 
M213.211227,244.510773 
	C213.211227,249.932465 213.211227,255.354141 213.211227,260.744690 
	C220.669540,260.744690 227.589981,260.744690 235.278748,260.744690 
	C235.278748,255.597290 235.278748,250.662445 235.278748,245.727615 
	C235.780319,245.677673 236.281876,245.627731 236.783447,245.577789 
	C238.250809,250.687912 239.718170,255.798050 241.136261,260.736572 
	C249.512634,260.736572 257.449829,260.736572 265.521545,260.736572 
	C265.521545,241.278168 265.521545,222.067276 265.521545,202.874405 
	C258.074066,202.874405 250.980972,202.874405 243.017426,202.874405 
	C243.017426,208.592010 243.017426,214.051620 243.017426,219.511230 
	C242.497620,219.590805 241.977814,219.670380 241.458008,219.749969 
	C240.920898,218.339249 240.235962,216.965027 239.876877,215.510391 
	C239.081329,212.287491 238.601425,208.979797 237.672638,205.800201 
	C237.322464,204.601425 236.117981,202.772278 235.251480,202.742783 
	C228.016159,202.496384 220.768814,202.602814 213.224472,202.602814 
	C213.224472,216.619675 213.224472,230.068634 213.211227,244.510773 
M305.742615,174.605255 
	C302.802185,174.147141 301.230225,175.207642 300.480804,178.295120 
	C299.494934,182.356522 297.909332,186.272354 296.581604,190.250778 
	C296.053162,190.083054 295.524689,189.915329 294.996216,189.747604 
	C294.996216,184.835587 294.996216,179.923569 294.996216,174.870605 
	C287.448120,174.870605 280.221252,174.870605 272.693604,174.870605 
	C272.693604,194.318207 272.693604,213.500748 272.693604,232.700195 
	C279.870422,232.700195 286.781952,232.700195 293.860443,232.700195 
	C294.178406,226.788971 294.482605,221.133545 294.786804,215.478104 
	C295.310303,215.423111 295.833832,215.368118 296.357361,215.313126 
	C297.918793,221.147797 299.480225,226.982468 301.035187,232.793030 
	C309.070465,232.793030 316.859497,232.793030 325.356201,232.793030 
	C323.067749,223.954880 320.751648,215.483322 318.739594,206.940170 
	C318.163147,204.492630 317.886444,201.695847 318.472260,199.304108 
	C320.438873,191.274948 322.856842,183.356339 325.324951,174.605194 
	C318.566315,174.605194 312.628113,174.605194 305.742615,174.605255 
M343.174622,258.622284 
	C345.459290,249.034561 345.665497,238.943222 349.069122,229.626602 
	C349.782104,229.657837 350.495117,229.689056 351.208099,229.720291 
	C352.259460,237.404434 353.310822,245.088577 354.415649,253.163696 
	C351.917542,253.494400 350.012268,253.746628 347.683807,254.054871 
	C347.166168,259.259735 346.651855,264.431061 346.122589,269.752838 
	C356.732941,269.752838 366.813416,269.752838 377.050934,269.752838 
	C373.733124,250.255951 370.457733,231.008270 367.191650,211.815216 
	C355.435822,211.815216 344.337830,211.815216 333.117706,211.815216 
	C329.641602,231.212143 326.198853,250.422760 322.750244,269.666321 
	C329.258331,269.666321 335.504913,269.666321 341.685455,269.666321 
	C342.168732,266.063538 342.609711,262.776123 343.174622,258.622284 
M155.192673,225.826935 
	C154.810944,228.087189 154.429230,230.347427 154.027390,232.726761 
	C160.565948,232.726761 166.821304,232.726761 173.046921,232.726761 
	C175.420166,219.157883 176.737106,205.619019 180.575317,192.235992 
	C181.905304,193.007004 182.406021,193.135696 182.438889,193.339706 
	C183.571182,200.371735 184.723068,207.402573 185.644058,214.463318 
	C185.726242,215.093369 184.387955,216.275360 183.497330,216.579071 
	C182.188644,217.025330 180.688736,216.910843 179.135818,217.047058 
	C178.645889,222.466080 178.188583,227.524155 177.721588,232.689484 
	C188.315765,232.689484 198.354736,232.689484 208.525726,232.689484 
	C205.229156,213.252563 201.984314,194.120682 198.743881,175.014694 
	C187.006195,175.014694 175.631775,175.014694 164.328934,175.014694 
	C162.915344,183.627823 161.664627,191.846512 160.196747,200.026245 
	C158.699310,208.370636 156.988495,216.676743 155.192673,225.826935 
M269.967834,206.076263 
	C269.925903,205.116714 269.883942,204.157166 269.842010,203.197617 
	C269.667358,203.202332 269.492737,203.207047 269.318085,203.211761 
	C269.318085,210.037384 269.318085,216.862991 269.318085,223.688599 
	C269.534698,223.690643 269.751312,223.692688 269.967926,223.694733 
	C269.967926,218.111298 269.967926,212.527863 269.967834,206.076263 
z"/>
<path fill="#DFEAF1" opacity="1.000000" stroke="none" 
	d="
M210.591171,335.283936 
	C209.536652,333.711029 208.169601,332.314545 208.232254,330.985413 
	C208.306519,329.409912 209.251053,327.341827 210.498367,326.523071 
	C211.507584,325.860626 214.239136,326.174194 214.926407,327.054413 
	C215.962997,328.382080 216.755966,331.086792 216.061737,332.282928 
	C215.165009,333.827972 212.700745,334.463196 210.591171,335.283936 
z"/>
<path fill="#E4EEF4" opacity="1.000000" stroke="none" 
	d="
M249.954224,318.103882 
	C246.746765,319.848450 245.161133,319.021423 244.967773,315.783203 
	C244.850113,313.812805 244.946075,311.829620 244.946075,308.621460 
	C247.523788,309.306580 249.638885,309.868713 251.753967,310.430878 
	C251.022644,312.909119 254.930511,316.253174 249.954224,318.103882 
z"/>
<path fill="#DCE7EE" opacity="1.000000" stroke="none" 
	d="
M280.542053,312.570404 
	C280.514557,314.853027 280.655884,316.784821 280.797180,318.716583 
	C280.493134,318.799103 280.189056,318.881622 279.884979,318.964172 
	C279.233307,317.791779 278.581604,316.619415 277.698639,315.030975 
	C276.684845,316.258423 275.824097,317.300568 274.385010,319.042938 
	C274.385010,315.264709 274.385010,312.435516 274.385010,309.306763 
	C277.186340,309.274811 280.357819,307.477264 280.542053,312.570404 
z"/>
<path fill="#E4EEF4" opacity="1.000000" stroke="none" 
	d="
M279.424438,330.177246 
	C279.502594,332.215668 279.770294,333.907806 280.037994,335.599945 
	C279.776154,335.687683 279.514343,335.775391 279.252502,335.863129 
	C278.275909,334.532227 277.299347,333.201324 275.865509,331.247284 
	C275.319885,333.146942 274.984772,334.313690 274.649658,335.480408 
	C274.233124,335.501190 273.816589,335.522003 273.400055,335.542786 
	C273.211670,332.573853 273.023315,329.604919 272.793304,325.979614 
	C275.956421,326.755554 280.258209,323.600525 279.424438,330.177246 
z"/>
<path fill="#E4EEF4" opacity="1.000000" stroke="none" 
	d="
M259.175476,334.383484 
	C259.021393,331.522369 259.021393,329.072205 259.021393,326.305847 
	C261.250671,326.305847 263.148132,326.305847 266.327850,326.305847 
	C264.429749,327.354675 263.489655,327.874146 262.263672,328.551575 
	C263.150299,329.148590 263.963043,329.695892 264.981293,330.381531 
	C263.785858,330.968292 262.882111,331.411896 261.275146,332.200653 
	C263.190796,333.019073 264.404541,333.537628 265.618286,334.056152 
	C265.514038,334.631989 265.409821,335.207794 265.305603,335.783630 
	C263.313568,335.453918 261.321564,335.124207 259.175476,334.383484 
z"/>
<path fill="#DFEAF1" opacity="1.000000" stroke="none" 
	d="
M262.643341,311.646393 
	C263.671204,312.512970 264.599518,313.063080 265.796356,313.772339 
	C264.747375,314.421387 263.831055,314.988373 262.853912,315.592987 
	C263.894440,316.191742 265.045624,316.854156 266.196838,317.516571 
	C266.116028,317.924164 266.035248,318.331757 265.954468,318.739380 
	C264.306091,318.852264 262.657715,318.965149 260.556183,319.109039 
	C260.556183,315.744354 260.556183,312.734100 260.556183,309.343872 
	C262.395508,309.343872 264.208038,309.343872 266.020569,309.343872 
	C266.088593,309.613098 266.156616,309.882324 266.224609,310.151581 
	C264.997681,310.544373 263.770721,310.937164 262.643341,311.646393 
z"/>
<path fill="#E4EEF4" opacity="1.000000" stroke="none" 
	d="
M217.267838,319.046936 
	C215.925613,318.108276 214.379120,317.289276 214.138809,316.185791 
	C213.693314,314.140259 214.011230,311.928467 214.011230,309.279449 
	C216.043152,309.175659 217.758804,309.088013 219.474442,309.000397 
	C219.567215,309.266754 219.660004,309.533112 219.752777,309.799438 
	C218.660980,310.375336 217.569199,310.951233 216.163528,311.692688 
	C217.345657,312.187500 218.322510,312.596375 220.024063,313.308624 
	C218.330826,313.954651 217.272186,314.358582 215.245453,315.131866 
	C217.391815,315.946655 218.632889,316.417816 220.485214,317.121002 
	C219.316910,317.911835 218.484894,318.475006 217.267838,319.046936 
z"/>
<path fill="#DFEAF1" opacity="1.000000" stroke="none" 
	d="
M202.088745,315.098511 
	C200.719421,316.132721 199.734039,317.171051 198.382706,318.595001 
	C198.382706,315.255554 198.382706,312.416718 198.382706,308.511169 
	C200.890259,312.042664 203.154755,314.755188 205.613647,309.399170 
	C205.613647,312.143890 205.613647,314.888611 205.613647,319.278473 
	C204.026535,317.168427 203.249603,316.135529 202.088745,315.098511 
z"/>
<path fill="#D4E2EA" opacity="1.000000" stroke="none" 
	d="
M197.145630,335.066467 
	C195.567322,333.478424 193.706604,332.013489 193.429428,330.293427 
	C193.234497,329.083649 194.918350,326.965881 196.276672,326.298645 
	C197.404831,325.744476 199.281845,326.714722 200.827133,327.009674 
	C200.745453,327.406250 200.663773,327.802795 200.582108,328.199371 
	C199.221756,328.199371 197.861420,328.199371 196.391373,328.199371 
	C194.727890,332.611969 196.430222,333.646423 201.107452,332.182098 
	C200.541138,333.325958 200.388977,334.177673 199.893066,334.499146 
	C199.252335,334.914612 198.336899,334.906372 197.145630,335.066467 
z"/>
<path fill="#D4E2EA" opacity="1.000000" stroke="none" 
	d="
M294.434021,327.096436 
	C293.335114,327.732178 292.005920,328.095428 290.176453,328.595459 
	C290.176453,329.747925 290.176453,331.236786 290.176453,332.991974 
	C291.901917,332.800629 293.257233,332.650330 294.612518,332.500000 
	C294.704285,332.997101 294.796051,333.494171 294.887817,333.991241 
	C293.065826,334.209656 290.378357,335.257660 289.615112,334.461334 
	C288.316406,333.106354 287.336121,330.336487 287.826263,328.618927 
	C288.712402,325.513702 291.423401,325.175964 294.434021,327.096436 
z"/>
<path fill="#E4EEF4" opacity="1.000000" stroke="none" 
	d="
M187.231216,310.954773 
	C186.308868,312.339844 185.750305,313.753784 185.191742,315.167725 
	C186.760529,315.418427 188.329315,315.669128 190.513657,316.018219 
	C189.068649,317.922089 187.694565,319.401703 184.991608,317.739166 
	C181.816589,315.786316 182.338959,312.763336 183.852997,310.452209 
	C185.595276,307.792633 188.072052,308.609680 191.298431,311.342133 
	C189.208176,311.139832 188.401596,311.061768 187.231216,310.954773 
z"/>
<path fill="#DFEAF1" opacity="1.000000" stroke="none" 
	d="
M229.970352,329.926300 
	C230.539810,328.563446 231.109253,327.200592 231.678696,325.837738 
	C232.156616,325.931580 232.634537,326.025421 233.112457,326.119232 
	C233.112457,329.090424 233.112457,332.061584 233.112457,335.334534 
	C231.482819,335.152039 229.730743,334.955841 228.020889,334.116119 
	C228.698868,332.290497 229.334610,331.108398 229.970352,329.926300 
z"/>
<path fill="#DFEAF1" opacity="1.000000" stroke="none" 
	d="
M306.781067,335.064026 
	C305.424530,335.186035 304.448364,335.297546 303.201172,335.440033 
	C303.201172,332.460266 303.201172,329.461975 303.201172,326.348785 
	C305.128540,326.348785 306.782318,326.348785 308.436066,326.348785 
	C308.485657,326.595032 308.535248,326.841278 308.584839,327.087524 
	C307.550323,327.532410 306.515808,327.977325 305.077515,328.595856 
	C306.310791,329.229736 307.224060,329.699127 308.636658,330.425201 
	C307.111633,330.992218 306.143494,331.352173 305.463684,331.604950 
	C303.880280,334.204224 310.167938,331.791077 306.781067,335.064026 
z"/>
<path fill="#DCE7EE" opacity="1.000000" stroke="none" 
	d="
M229.692322,330.099365 
	C229.334610,331.108398 228.698868,332.290497 228.000671,333.814850 
	C226.898254,334.554688 225.858292,334.952271 224.737488,335.380768 
	C224.737488,332.132355 224.737488,329.127869 224.737488,324.833466 
	C226.905243,327.354492 228.159775,328.813477 229.692322,330.099365 
z"/>
<path fill="#FAFAFA" opacity="1.000000" stroke="none" 
	d="
M213.217850,244.014175 
	C213.224472,230.068634 213.224472,216.619675 213.224472,202.602814 
	C220.768814,202.602814 228.016159,202.496384 235.251480,202.742783 
	C236.117981,202.772278 237.322464,204.601425 237.672638,205.800201 
	C238.601425,208.979797 239.081329,212.287491 239.876877,215.510391 
	C240.235962,216.965027 240.920898,218.339249 241.458008,219.749969 
	C241.977814,219.670380 242.497620,219.590805 243.017426,219.511230 
	C243.017426,214.051620 243.017426,208.592010 243.017426,202.874405 
	C250.980972,202.874405 258.074066,202.874405 265.521545,202.874405 
	C265.521545,222.067276 265.521545,241.278168 265.521545,260.736572 
	C257.449829,260.736572 249.512634,260.736572 241.136261,260.736572 
	C239.718170,255.798050 238.250809,250.687912 236.783447,245.577789 
	C236.281876,245.627731 235.780319,245.677673 235.278748,245.727615 
	C235.278748,250.662445 235.278748,255.597290 235.278748,260.744690 
	C227.589981,260.744690 220.669540,260.744690 213.211227,260.744690 
	C213.211227,255.354141 213.211227,249.932465 213.217850,244.014175 
z"/>
<path fill="#FDFDFD" opacity="1.000000" stroke="none" 
	d="
M306.216278,174.605225 
	C312.628113,174.605194 318.566315,174.605194 325.324951,174.605194 
	C322.856842,183.356339 320.438873,191.274948 318.472260,199.304108 
	C317.886444,201.695847 318.163147,204.492630 318.739594,206.940170 
	C320.751648,215.483322 323.067749,223.954880 325.356201,232.793030 
	C316.859497,232.793030 309.070465,232.793030 301.035187,232.793030 
	C299.480225,226.982468 297.918793,221.147797 296.357361,215.313126 
	C295.833832,215.368118 295.310303,215.423111 294.786804,215.478104 
	C294.482605,221.133545 294.178406,226.788971 293.860443,232.700195 
	C286.781952,232.700195 279.870422,232.700195 272.693604,232.700195 
	C272.693604,213.500748 272.693604,194.318207 272.693604,174.870605 
	C280.221252,174.870605 287.448120,174.870605 294.996216,174.870605 
	C294.996216,179.923569 294.996216,184.835587 294.996216,189.747604 
	C295.524689,189.915329 296.053162,190.083054 296.581604,190.250778 
	C297.909332,186.272354 299.494934,182.356522 300.480804,178.295120 
	C301.230225,175.207642 302.802185,174.147141 306.216278,174.605225 
z"/>
<path fill="#FCFCFC" opacity="1.000000" stroke="none" 
	d="
M343.112671,259.055511 
	C342.609711,262.776123 342.168732,266.063538 341.685455,269.666321 
	C335.504913,269.666321 329.258331,269.666321 322.750244,269.666321 
	C326.198853,250.422760 329.641602,231.212143 333.117706,211.815216 
	C344.337830,211.815216 355.435822,211.815216 367.191650,211.815216 
	C370.457733,231.008270 373.733124,250.255951 377.050934,269.752838 
	C366.813416,269.752838 356.732941,269.752838 346.122589,269.752838 
	C346.651855,264.431061 347.166168,259.259735 347.683807,254.054871 
	C350.012268,253.746628 351.917542,253.494400 354.415649,253.163696 
	C353.310822,245.088577 352.259460,237.404434 351.208099,229.720291 
	C350.495117,229.689056 349.782104,229.657837 349.069122,229.626602 
	C345.665497,238.943222 345.459290,249.034561 343.112671,259.055511 
z"/>
<path fill="#FCFCFC" opacity="1.000000" stroke="none" 
	d="
M155.281891,225.413269 
	C156.988495,216.676743 158.699310,208.370636 160.196747,200.026245 
	C161.664627,191.846512 162.915344,183.627823 164.328934,175.014694 
	C175.631775,175.014694 187.006195,175.014694 198.743881,175.014694 
	C201.984314,194.120682 205.229156,213.252563 208.525726,232.689484 
	C198.354736,232.689484 188.315765,232.689484 177.721588,232.689484 
	C178.188583,227.524155 178.645889,222.466080 179.135818,217.047058 
	C180.688736,216.910843 182.188644,217.025330 183.497330,216.579071 
	C184.387955,216.275360 185.726242,215.093369 185.644058,214.463318 
	C184.723068,207.402573 183.571182,200.371735 182.438889,193.339706 
	C182.406021,193.135696 181.905304,193.007004 180.575317,192.235992 
	C176.737106,205.619019 175.420166,219.157883 173.046921,232.726761 
	C166.821304,232.726761 160.565948,232.726761 154.027390,232.726761 
	C154.429230,230.347427 154.810944,228.087189 155.281891,225.413269 
z"/>
<path fill="#0B2432" opacity="1.000000" stroke="none" 
	d="
M269.967896,206.510345 
	C269.967926,212.527863 269.967926,218.111298 269.967926,223.694733 
	C269.751312,223.692688 269.534698,223.690643 269.318085,223.688599 
	C269.318085,216.862991 269.318085,210.037384 269.318085,203.211761 
	C269.492737,203.207047 269.667358,203.202332 269.842010,203.197617 
	C269.883942,204.157166 269.925903,205.116714 269.967896,206.510345 
z"/>
</svg>